<svg xmlns="http://www.w3.org/2000/svg" width="1600" height="1100" viewBox="0 0 1600 1100">
  <defs>
    <linearGradient id="pageBg" x1="0" y1="0" x2="1" y2="1">
      <stop offset="0%" stop-color="#02050d"/>
      <stop offset="55%" stop-color="#07152b"/>
      <stop offset="100%" stop-color="#00030a"/>
    </linearGradient>
    <linearGradient id="cardBg" x1="0" y1="0" x2="1" y2="1">
      <stop offset="0%" stop-color="#050b16"/>
      <stop offset="58%" stop-color="#0a1b34"/>
      <stop offset="100%" stop-color="#020713"/>
    </linearGradient>
    <linearGradient id="electric" x1="0" y1="0" x2="1" y2="0">
      <stop offset="0%" stop-color="#00f0ff"/>
      <stop offset="50%" stop-color="#158dff"/>
      <stop offset="100%" stop-color="#004eff"/>
    </linearGradient>
    <radialGradient id="halo" cx="50%" cy="50%" r="60%">
      <stop offset="0%" stop-color="#00d9ff" stop-opacity=".48"/>
      <stop offset="100%" stop-color="#00d9ff" stop-opacity="0"/>
    </radialGradient>
    <filter id="glow">
      <feGaussianBlur stdDeviation="4" result="blur"/>
      <feMerge><feMergeNode in="blur"/><feMergeNode in="SourceGraphic"/></feMerge>
    </filter>
    <filter id="shadow">
      <feDropShadow dx="0" dy="18" stdDeviation="18" flood-color="#00aaff" flood-opacity=".18"/>
    </filter>
    <style>
      .white { fill:#f6fbff; font-family: Arial, Helvetica, sans-serif; }
      .blue { fill:#00d9ff; font-family: Arial, Helvetica, sans-serif; }
      .muted { fill:#a9bad0; font-family: Arial, Helvetica, sans-serif; }
      .small { font-size:24px; }
      .label { font-size:20px; letter-spacing:3px; font-weight:800; }
    </style>
  </defs>

  <rect width="1600" height="1100" fill="url(#pageBg)"/>
  <circle cx="800" cy="515" r="470" fill="url(#halo)"/>
  <g opacity=".22" stroke="#0bdcff" stroke-width="1.2" fill="none">
    <path d="M80 260 C350 90, 570 150, 790 245 S1180 350, 1520 120"/>
    <path d="M40 890 C280 720, 580 870, 820 760 S1220 610, 1560 760"/>
    <path d="M245 0 V1100 M580 0 V1100 M1010 0 V1100 M1360 0 V1100"/>
    <path d="M0 205 H1600 M0 560 H1600 M0 930 H1600"/>
  </g>

  <text x="800" y="70" text-anchor="middle" class="blue" font-size="34" font-weight="900" letter-spacing="5">JAWSAI911 BRAND ASSETS</text>

  <!-- Digital business card frame -->
  <g filter="url(#shadow)">
    <rect x="75" y="115" width="1450" height="535" rx="34" fill="#03101f" stroke="#00d9ff" stroke-opacity=".45" stroke-width="2"/>
    <text x="105" y="160" class="blue label">DIGITAL BUSINESS CARD</text>

    <!-- Front card -->
    <g transform="translate(125,190)">
      <rect width="650" height="390" rx="24" fill="url(#cardBg)" stroke="#00d9ff" stroke-opacity=".70" stroke-width="2"/>
      
    <g opacity=".34" stroke="#00d9ff" stroke-width="2" fill="none">
      <path d="M45 70 H210 V115 H285"/>
      <path d="M60 325 H180 V280 H330"/>
      <path d="M485 65 H360 V105 H300"/>
      <path d="M500 315 H390 V270 H300"/>
    </g>
    <g fill="#00d9ff" opacity=".34">
      <circle cx="210" cy="70" r="5"/>
      <circle cx="285" cy="115" r="5"/>
      <circle cx="180" cy="325" r="5"/>
      <circle cx="330" cy="280" r="5"/>
      <circle cx="360" cy="65" r="5"/>
      <circle cx="300" cy="105" r="5"/>
      <circle cx="390" cy="315" r="5"/>
      <circle cx="300" cy="270" r="5"/>
    </g>
      
    <g transform="translate(175,45) scale(0.95)" filter="url(#glow)">
      <path d="M150 0 C92 48 70 110 63 165 C100 112 128 85 150 0 Z" fill="url(#electric)"/>
      <path d="M132 48 C103 80 87 112 78 153 C103 121 124 96 132 48 Z" fill="#020814" opacity=".92"/>
      <path d="M117 82 L98 158" stroke="#00e5ff" stroke-width="5" stroke-linecap="round"/>
      <path d="M151 28 L135 150" stroke="#146dff" stroke-width="5" stroke-linecap="round"/>
      <path d="M0 118 H62 M178 118 H300 M26 95 H88 M198 95 H276" stroke="#00d9ff" stroke-width="4" stroke-linecap="round"/>
      <circle cx="62" cy="118" r="6" fill="#00d9ff"/>
      <circle cx="88" cy="95" r="6" fill="#00d9ff"/>
      <circle cx="178" cy="118" r="6" fill="#00d9ff"/>
      <circle cx="276" cy="95" r="6" fill="#00d9ff"/>
    </g>
      <text x="325" y="242" text-anchor="middle" class="white" font-size="48" font-weight="900" letter-spacing="-2">JAWSAI<tspan fill="#00d9ff">911</tspan><tspan font-size="34">.COM</tspan></text>
      <line x1="115" y1="270" x2="535" y2="270" stroke="#00d9ff" stroke-width="3" opacity=".9"/>
      <text x="325" y="310" text-anchor="middle" class="blue" font-size="20" font-weight="800" letter-spacing="2.5">AI AUTOMATION &amp; BUSINESS SOLUTIONS</text>
      <text x="325" y="350" text-anchor="middle" class="white" font-size="22" font-weight="800" letter-spacing="4">LEAVE THE SCHOOL BEHIND</text>
    </g>

    <!-- Back card -->
    <g transform="translate(825,190)">
      <rect width="650" height="390" rx="24" fill="url(#cardBg)" stroke="#00d9ff" stroke-opacity=".70" stroke-width="2"/>
      
    <g opacity="0.22" stroke="#00d9ff" stroke-width="2" fill="none">
      <path d="M345 75 H510 V120 H585"/>
      <path d="M360 330 H480 V285 H630"/>
      <path d="M785 70 H660 V110 H600"/>
      <path d="M800 320 H690 V275 H600"/>
    </g>
    <g fill="#00d9ff" opacity="0.22">
      <circle cx="510" cy="75" r="5"/>
      <circle cx="585" cy="120" r="5"/>
      <circle cx="480" cy="330" r="5"/>
      <circle cx="630" cy="285" r="5"/>
      <circle cx="660" cy="70" r="5"/>
      <circle cx="600" cy="110" r="5"/>
      <circle cx="690" cy="320" r="5"/>
      <circle cx="600" cy="275" r="5"/>
    </g>
      <text x="45" y="83" class="white" font-size="42" font-weight="900">Bryan Jaworski</text>
      <text x="47" y="120" class="blue" font-size="24" font-weight="700">Founder &amp; CEO</text>
      <line x1="45" y1="146" x2="360" y2="146" stroke="#00d9ff" stroke-width="3"/>
      <text x="50" y="195" class="white small">☎ 786-761-2950</text>
      <text x="50" y="236" class="white small">✉ sharknotgoldfish@gmail.com</text>
      <text x="50" y="277" class="white small">🌐 JAWSAI911.com</text>
      <text x="50" y="318" class="white small">📍 Royal Palm Beach, FL</text>
      <rect x="440" y="118" width="210" height="230" rx="20" fill="#08172a" stroke="#00d9ff" stroke-width="2"/>
      <rect x="1268" y="313" width="205" height="205" rx="14" fill="#fff" transform="translate(-825,-190)"/>
      <rect x="1295.303" y="345.303" width="5.152" height="5.152" fill="#06101f"/>
<rect x="1300.455" y="345.303" width="5.152" height="5.152" fill="#06101f"/>
<rect x="1305.606" y="345.303" width="5.152" height="5.152" fill="#06101f"/>
<rect x="1310.758" y="345.303" width="5.152" height="5.152" fill="#06101f"/>
<rect x="1315.909" y="345.303" width="5.152" height="5.152" fill="#06101f"/>
<rect x="1321.061" y="345.303" width="5.152" height="5.152" fill="#06101f"/>
<rect x="1326.212" y="345.303" width="5.152" height="5.152" fill="#06101f"/>
<rect x="1341.667" y="345.303" width="5.152" height="5.152" fill="#06101f"/>
<rect x="1351.970" y="345.303" width="5.152" height="5.152" fill="#06101f"/>
<rect x="1367.424" y="345.303" width="5.152" height="5.152" fill="#06101f"/>
<rect x="1377.727" y="345.303" width="5.152" height="5.152" fill="#06101f"/>
<rect x="1408.636" y="345.303" width="5.152" height="5.152" fill="#06101f"/>
<rect x="1413.788" y="345.303" width="5.152" height="5.152" fill="#06101f"/>
<rect x="1418.939" y="345.303" width="5.152" height="5.152" fill="#06101f"/>
<rect x="1424.091" y="345.303" width="5.152" height="5.152" fill="#06101f"/>
<rect x="1429.242" y="345.303" width="5.152" height="5.152" fill="#06101f"/>
<rect x="1434.394" y="345.303" width="5.152" height="5.152" fill="#06101f"/>
<rect x="1439.545" y="345.303" width="5.152" height="5.152" fill="#06101f"/>
<rect x="1295.303" y="350.455" width="5.152" height="5.152" fill="#06101f"/>
<rect x="1326.212" y="350.455" width="5.152" height="5.152" fill="#06101f"/>
<rect x="1357.121" y="350.455" width="5.152" height="5.152" fill="#06101f"/>
<rect x="1367.424" y="350.455" width="5.152" height="5.152" fill="#06101f"/>
<rect x="1388.030" y="350.455" width="5.152" height="5.152" fill="#06101f"/>
<rect x="1408.636" y="350.455" width="5.152" height="5.152" fill="#06101f"/>
<rect x="1439.545" y="350.455" width="5.152" height="5.152" fill="#06101f"/>
<rect x="1295.303" y="355.606" width="5.152" height="5.152" fill="#06101f"/>
<rect x="1305.606" y="355.606" width="5.152" height="5.152" fill="#06101f"/>
<rect x="1310.758" y="355.606" width="5.152" height="5.152" fill="#06101f"/>
<rect x="1315.909" y="355.606" width="5.152" height="5.152" fill="#06101f"/>
<rect x="1326.212" y="355.606" width="5.152" height="5.152" fill="#06101f"/>
<rect x="1341.667" y="355.606" width="5.152" height="5.152" fill="#06101f"/>
<rect x="1351.970" y="355.606" width="5.152" height="5.152" fill="#06101f"/>
<rect x="1357.121" y="355.606" width="5.152" height="5.152" fill="#06101f"/>
<rect x="1362.273" y="355.606" width="5.152" height="5.152" fill="#06101f"/>
<rect x="1367.424" y="355.606" width="5.152" height="5.152" fill="#06101f"/>
<rect x="1372.576" y="355.606" width="5.152" height="5.152" fill="#06101f"/>
<rect x="1377.727" y="355.606" width="5.152" height="5.152" fill="#06101f"/>
<rect x="1388.030" y="355.606" width="5.152" height="5.152" fill="#06101f"/>
<rect x="1393.182" y="355.606" width="5.152" height="5.152" fill="#06101f"/>
<rect x="1408.636" y="355.606" width="5.152" height="5.152" fill="#06101f"/>
<rect x="1418.939" y="355.606" width="5.152" height="5.152" fill="#06101f"/>
<rect x="1424.091" y="355.606" width="5.152" height="5.152" fill="#06101f"/>
<rect x="1429.242" y="355.606" width="5.152" height="5.152" fill="#06101f"/>
<rect x="1439.545" y="355.606" width="5.152" height="5.152" fill="#06101f"/>
<rect x="1295.303" y="360.758" width="5.152" height="5.152" fill="#06101f"/>
<rect x="1305.606" y="360.758" width="5.152" height="5.152" fill="#06101f"/>
<rect x="1310.758" y="360.758" width="5.152" height="5.152" fill="#06101f"/>
<rect x="1315.909" y="360.758" width="5.152" height="5.152" fill="#06101f"/>
<rect x="1326.212" y="360.758" width="5.152" height="5.152" fill="#06101f"/>
<rect x="1341.667" y="360.758" width="5.152" height="5.152" fill="#06101f"/>
<rect x="1351.970" y="360.758" width="5.152" height="5.152" fill="#06101f"/>
<rect x="1367.424" y="360.758" width="5.152" height="5.152" fill="#06101f"/>
<rect x="1372.576" y="360.758" width="5.152" height="5.152" fill="#06101f"/>
<rect x="1377.727" y="360.758" width="5.152" height="5.152" fill="#06101f"/>
<rect x="1382.879" y="360.758" width="5.152" height="5.152" fill="#06101f"/>
<rect x="1398.333" y="360.758" width="5.152" height="5.152" fill="#06101f"/>
<rect x="1408.636" y="360.758" width="5.152" height="5.152" fill="#06101f"/>
<rect x="1418.939" y="360.758" width="5.152" height="5.152" fill="#06101f"/>
<rect x="1424.091" y="360.758" width="5.152" height="5.152" fill="#06101f"/>
<rect x="1429.242" y="360.758" width="5.152" height="5.152" fill="#06101f"/>
<rect x="1439.545" y="360.758" width="5.152" height="5.152" fill="#06101f"/>
<rect x="1295.303" y="365.909" width="5.152" height="5.152" fill="#06101f"/>
<rect x="1305.606" y="365.909" width="5.152" height="5.152" fill="#06101f"/>
<rect x="1310.758" y="365.909" width="5.152" height="5.152" fill="#06101f"/>
<rect x="1315.909" y="365.909" width="5.152" height="5.152" fill="#06101f"/>
<rect x="1326.212" y="365.909" width="5.152" height="5.152" fill="#06101f"/>
<rect x="1336.515" y="365.909" width="5.152" height="5.152" fill="#06101f"/>
<rect x="1341.667" y="365.909" width="5.152" height="5.152" fill="#06101f"/>
<rect x="1351.970" y="365.909" width="5.152" height="5.152" fill="#06101f"/>
<rect x="1357.121" y="365.909" width="5.152" height="5.152" fill="#06101f"/>
<rect x="1362.273" y="365.909" width="5.152" height="5.152" fill="#06101f"/>
<rect x="1367.424" y="365.909" width="5.152" height="5.152" fill="#06101f"/>
<rect x="1377.727" y="365.909" width="5.152" height="5.152" fill="#06101f"/>
<rect x="1388.030" y="365.909" width="5.152" height="5.152" fill="#06101f"/>
<rect x="1393.182" y="365.909" width="5.152" height="5.152" fill="#06101f"/>
<rect x="1408.636" y="365.909" width="5.152" height="5.152" fill="#06101f"/>
<rect x="1418.939" y="365.909" width="5.152" height="5.152" fill="#06101f"/>
<rect x="1424.091" y="365.909" width="5.152" height="5.152" fill="#06101f"/>
<rect x="1429.242" y="365.909" width="5.152" height="5.152" fill="#06101f"/>
<rect x="1439.545" y="365.909" width="5.152" height="5.152" fill="#06101f"/>
<rect x="1295.303" y="371.061" width="5.152" height="5.152" fill="#06101f"/>
<rect x="1326.212" y="371.061" width="5.152" height="5.152" fill="#06101f"/>
<rect x="1341.667" y="371.061" width="5.152" height="5.152" fill="#06101f"/>
<rect x="1351.970" y="371.061" width="5.152" height="5.152" fill="#06101f"/>
<rect x="1357.121" y="371.061" width="5.152" height="5.152" fill="#06101f"/>
<rect x="1382.879" y="371.061" width="5.152" height="5.152" fill="#06101f"/>
<rect x="1388.030" y="371.061" width="5.152" height="5.152" fill="#06101f"/>
<rect x="1393.182" y="371.061" width="5.152" height="5.152" fill="#06101f"/>
<rect x="1398.333" y="371.061" width="5.152" height="5.152" fill="#06101f"/>
<rect x="1408.636" y="371.061" width="5.152" height="5.152" fill="#06101f"/>
<rect x="1439.545" y="371.061" width="5.152" height="5.152" fill="#06101f"/>
<rect x="1295.303" y="376.212" width="5.152" height="5.152" fill="#06101f"/>
<rect x="1300.455" y="376.212" width="5.152" height="5.152" fill="#06101f"/>
<rect x="1305.606" y="376.212" width="5.152" height="5.152" fill="#06101f"/>
<rect x="1310.758" y="376.212" width="5.152" height="5.152" fill="#06101f"/>
<rect x="1315.909" y="376.212" width="5.152" height="5.152" fill="#06101f"/>
<rect x="1321.061" y="376.212" width="5.152" height="5.152" fill="#06101f"/>
<rect x="1326.212" y="376.212" width="5.152" height="5.152" fill="#06101f"/>
<rect x="1336.515" y="376.212" width="5.152" height="5.152" fill="#06101f"/>
<rect x="1346.818" y="376.212" width="5.152" height="5.152" fill="#06101f"/>
<rect x="1357.121" y="376.212" width="5.152" height="5.152" fill="#06101f"/>
<rect x="1367.424" y="376.212" width="5.152" height="5.152" fill="#06101f"/>
<rect x="1377.727" y="376.212" width="5.152" height="5.152" fill="#06101f"/>
<rect x="1388.030" y="376.212" width="5.152" height="5.152" fill="#06101f"/>
<rect x="1398.333" y="376.212" width="5.152" height="5.152" fill="#06101f"/>
<rect x="1408.636" y="376.212" width="5.152" height="5.152" fill="#06101f"/>
<rect x="1413.788" y="376.212" width="5.152" height="5.152" fill="#06101f"/>
<rect x="1418.939" y="376.212" width="5.152" height="5.152" fill="#06101f"/>
<rect x="1424.091" y="376.212" width="5.152" height="5.152" fill="#06101f"/>
<rect x="1429.242" y="376.212" width="5.152" height="5.152" fill="#06101f"/>
<rect x="1434.394" y="376.212" width="5.152" height="5.152" fill="#06101f"/>
<rect x="1439.545" y="376.212" width="5.152" height="5.152" fill="#06101f"/>
<rect x="1336.515" y="381.364" width="5.152" height="5.152" fill="#06101f"/>
<rect x="1346.818" y="381.364" width="5.152" height="5.152" fill="#06101f"/>
<rect x="1351.970" y="381.364" width="5.152" height="5.152" fill="#06101f"/>
<rect x="1372.576" y="381.364" width="5.152" height="5.152" fill="#06101f"/>
<rect x="1377.727" y="381.364" width="5.152" height="5.152" fill="#06101f"/>
<rect x="1398.333" y="381.364" width="5.152" height="5.152" fill="#06101f"/>
<rect x="1305.606" y="386.515" width="5.152" height="5.152" fill="#06101f"/>
<rect x="1310.758" y="386.515" width="5.152" height="5.152" fill="#06101f"/>
<rect x="1326.212" y="386.515" width="5.152" height="5.152" fill="#06101f"/>
<rect x="1331.364" y="386.515" width="5.152" height="5.152" fill="#06101f"/>
<rect x="1336.515" y="386.515" width="5.152" height="5.152" fill="#06101f"/>
<rect x="1341.667" y="386.515" width="5.152" height="5.152" fill="#06101f"/>
<rect x="1362.273" y="386.515" width="5.152" height="5.152" fill="#06101f"/>
<rect x="1377.727" y="386.515" width="5.152" height="5.152" fill="#06101f"/>
<rect x="1388.030" y="386.515" width="5.152" height="5.152" fill="#06101f"/>
<rect x="1393.182" y="386.515" width="5.152" height="5.152" fill="#06101f"/>
<rect x="1403.485" y="386.515" width="5.152" height="5.152" fill="#06101f"/>
<rect x="1408.636" y="386.515" width="5.152" height="5.152" fill="#06101f"/>
<rect x="1418.939" y="386.515" width="5.152" height="5.152" fill="#06101f"/>
<rect x="1300.455" y="391.667" width="5.152" height="5.152" fill="#06101f"/>
<rect x="1305.606" y="391.667" width="5.152" height="5.152" fill="#06101f"/>
<rect x="1310.758" y="391.667" width="5.152" height="5.152" fill="#06101f"/>
<rect x="1336.515" y="391.667" width="5.152" height="5.152" fill="#06101f"/>
<rect x="1346.818" y="391.667" width="5.152" height="5.152" fill="#06101f"/>
<rect x="1357.121" y="391.667" width="5.152" height="5.152" fill="#06101f"/>
<rect x="1362.273" y="391.667" width="5.152" height="5.152" fill="#06101f"/>
<rect x="1388.030" y="391.667" width="5.152" height="5.152" fill="#06101f"/>
<rect x="1398.333" y="391.667" width="5.152" height="5.152" fill="#06101f"/>
<rect x="1403.485" y="391.667" width="5.152" height="5.152" fill="#06101f"/>
<rect x="1408.636" y="391.667" width="5.152" height="5.152" fill="#06101f"/>
<rect x="1413.788" y="391.667" width="5.152" height="5.152" fill="#06101f"/>
<rect x="1418.939" y="391.667" width="5.152" height="5.152" fill="#06101f"/>
<rect x="1429.242" y="391.667" width="5.152" height="5.152" fill="#06101f"/>
<rect x="1439.545" y="391.667" width="5.152" height="5.152" fill="#06101f"/>
<rect x="1305.606" y="396.818" width="5.152" height="5.152" fill="#06101f"/>
<rect x="1321.061" y="396.818" width="5.152" height="5.152" fill="#06101f"/>
<rect x="1326.212" y="396.818" width="5.152" height="5.152" fill="#06101f"/>
<rect x="1331.364" y="396.818" width="5.152" height="5.152" fill="#06101f"/>
<rect x="1336.515" y="396.818" width="5.152" height="5.152" fill="#06101f"/>
<rect x="1341.667" y="396.818" width="5.152" height="5.152" fill="#06101f"/>
<rect x="1351.970" y="396.818" width="5.152" height="5.152" fill="#06101f"/>
<rect x="1357.121" y="396.818" width="5.152" height="5.152" fill="#06101f"/>
<rect x="1362.273" y="396.818" width="5.152" height="5.152" fill="#06101f"/>
<rect x="1367.424" y="396.818" width="5.152" height="5.152" fill="#06101f"/>
<rect x="1388.030" y="396.818" width="5.152" height="5.152" fill="#06101f"/>
<rect x="1393.182" y="396.818" width="5.152" height="5.152" fill="#06101f"/>
<rect x="1398.333" y="396.818" width="5.152" height="5.152" fill="#06101f"/>
<rect x="1408.636" y="396.818" width="5.152" height="5.152" fill="#06101f"/>
<rect x="1413.788" y="396.818" width="5.152" height="5.152" fill="#06101f"/>
<rect x="1418.939" y="396.818" width="5.152" height="5.152" fill="#06101f"/>
<rect x="1424.091" y="396.818" width="5.152" height="5.152" fill="#06101f"/>
<rect x="1429.242" y="396.818" width="5.152" height="5.152" fill="#06101f"/>
<rect x="1434.394" y="396.818" width="5.152" height="5.152" fill="#06101f"/>
<rect x="1310.758" y="401.970" width="5.152" height="5.152" fill="#06101f"/>
<rect x="1321.061" y="401.970" width="5.152" height="5.152" fill="#06101f"/>
<rect x="1331.364" y="401.970" width="5.152" height="5.152" fill="#06101f"/>
<rect x="1336.515" y="401.970" width="5.152" height="5.152" fill="#06101f"/>
<rect x="1346.818" y="401.970" width="5.152" height="5.152" fill="#06101f"/>
<rect x="1362.273" y="401.970" width="5.152" height="5.152" fill="#06101f"/>
<rect x="1372.576" y="401.970" width="5.152" height="5.152" fill="#06101f"/>
<rect x="1377.727" y="401.970" width="5.152" height="5.152" fill="#06101f"/>
<rect x="1382.879" y="401.970" width="5.152" height="5.152" fill="#06101f"/>
<rect x="1398.333" y="401.970" width="5.152" height="5.152" fill="#06101f"/>
<rect x="1413.788" y="401.970" width="5.152" height="5.152" fill="#06101f"/>
<rect x="1418.939" y="401.970" width="5.152" height="5.152" fill="#06101f"/>
<rect x="1424.091" y="401.970" width="5.152" height="5.152" fill="#06101f"/>
<rect x="1439.545" y="401.970" width="5.152" height="5.152" fill="#06101f"/>
<rect x="1315.909" y="407.121" width="5.152" height="5.152" fill="#06101f"/>
<rect x="1321.061" y="407.121" width="5.152" height="5.152" fill="#06101f"/>
<rect x="1326.212" y="407.121" width="5.152" height="5.152" fill="#06101f"/>
<rect x="1331.364" y="407.121" width="5.152" height="5.152" fill="#06101f"/>
<rect x="1346.818" y="407.121" width="5.152" height="5.152" fill="#06101f"/>
<rect x="1351.970" y="407.121" width="5.152" height="5.152" fill="#06101f"/>
<rect x="1367.424" y="407.121" width="5.152" height="5.152" fill="#06101f"/>
<rect x="1372.576" y="407.121" width="5.152" height="5.152" fill="#06101f"/>
<rect x="1377.727" y="407.121" width="5.152" height="5.152" fill="#06101f"/>
<rect x="1382.879" y="407.121" width="5.152" height="5.152" fill="#06101f"/>
<rect x="1393.182" y="407.121" width="5.152" height="5.152" fill="#06101f"/>
<rect x="1403.485" y="407.121" width="5.152" height="5.152" fill="#06101f"/>
<rect x="1413.788" y="407.121" width="5.152" height="5.152" fill="#06101f"/>
<rect x="1424.091" y="407.121" width="5.152" height="5.152" fill="#06101f"/>
<rect x="1429.242" y="407.121" width="5.152" height="5.152" fill="#06101f"/>
<rect x="1434.394" y="407.121" width="5.152" height="5.152" fill="#06101f"/>
<rect x="1439.545" y="407.121" width="5.152" height="5.152" fill="#06101f"/>
<rect x="1315.909" y="412.273" width="5.152" height="5.152" fill="#06101f"/>
<rect x="1321.061" y="412.273" width="5.152" height="5.152" fill="#06101f"/>
<rect x="1336.515" y="412.273" width="5.152" height="5.152" fill="#06101f"/>
<rect x="1351.970" y="412.273" width="5.152" height="5.152" fill="#06101f"/>
<rect x="1362.273" y="412.273" width="5.152" height="5.152" fill="#06101f"/>
<rect x="1367.424" y="412.273" width="5.152" height="5.152" fill="#06101f"/>
<rect x="1377.727" y="412.273" width="5.152" height="5.152" fill="#06101f"/>
<rect x="1382.879" y="412.273" width="5.152" height="5.152" fill="#06101f"/>
<rect x="1393.182" y="412.273" width="5.152" height="5.152" fill="#06101f"/>
<rect x="1408.636" y="412.273" width="5.152" height="5.152" fill="#06101f"/>
<rect x="1413.788" y="412.273" width="5.152" height="5.152" fill="#06101f"/>
<rect x="1424.091" y="412.273" width="5.152" height="5.152" fill="#06101f"/>
<rect x="1429.242" y="412.273" width="5.152" height="5.152" fill="#06101f"/>
<rect x="1439.545" y="412.273" width="5.152" height="5.152" fill="#06101f"/>
<rect x="1295.303" y="417.424" width="5.152" height="5.152" fill="#06101f"/>
<rect x="1300.455" y="417.424" width="5.152" height="5.152" fill="#06101f"/>
<rect x="1305.606" y="417.424" width="5.152" height="5.152" fill="#06101f"/>
<rect x="1315.909" y="417.424" width="5.152" height="5.152" fill="#06101f"/>
<rect x="1326.212" y="417.424" width="5.152" height="5.152" fill="#06101f"/>
<rect x="1336.515" y="417.424" width="5.152" height="5.152" fill="#06101f"/>
<rect x="1341.667" y="417.424" width="5.152" height="5.152" fill="#06101f"/>
<rect x="1346.818" y="417.424" width="5.152" height="5.152" fill="#06101f"/>
<rect x="1388.030" y="417.424" width="5.152" height="5.152" fill="#06101f"/>
<rect x="1393.182" y="417.424" width="5.152" height="5.152" fill="#06101f"/>
<rect x="1408.636" y="417.424" width="5.152" height="5.152" fill="#06101f"/>
<rect x="1413.788" y="417.424" width="5.152" height="5.152" fill="#06101f"/>
<rect x="1418.939" y="417.424" width="5.152" height="5.152" fill="#06101f"/>
<rect x="1424.091" y="417.424" width="5.152" height="5.152" fill="#06101f"/>
<rect x="1434.394" y="417.424" width="5.152" height="5.152" fill="#06101f"/>
<rect x="1439.545" y="417.424" width="5.152" height="5.152" fill="#06101f"/>
<rect x="1300.455" y="422.576" width="5.152" height="5.152" fill="#06101f"/>
<rect x="1310.758" y="422.576" width="5.152" height="5.152" fill="#06101f"/>
<rect x="1315.909" y="422.576" width="5.152" height="5.152" fill="#06101f"/>
<rect x="1336.515" y="422.576" width="5.152" height="5.152" fill="#06101f"/>
<rect x="1346.818" y="422.576" width="5.152" height="5.152" fill="#06101f"/>
<rect x="1362.273" y="422.576" width="5.152" height="5.152" fill="#06101f"/>
<rect x="1372.576" y="422.576" width="5.152" height="5.152" fill="#06101f"/>
<rect x="1377.727" y="422.576" width="5.152" height="5.152" fill="#06101f"/>
<rect x="1382.879" y="422.576" width="5.152" height="5.152" fill="#06101f"/>
<rect x="1393.182" y="422.576" width="5.152" height="5.152" fill="#06101f"/>
<rect x="1408.636" y="422.576" width="5.152" height="5.152" fill="#06101f"/>
<rect x="1418.939" y="422.576" width="5.152" height="5.152" fill="#06101f"/>
<rect x="1424.091" y="422.576" width="5.152" height="5.152" fill="#06101f"/>
<rect x="1300.455" y="427.727" width="5.152" height="5.152" fill="#06101f"/>
<rect x="1310.758" y="427.727" width="5.152" height="5.152" fill="#06101f"/>
<rect x="1321.061" y="427.727" width="5.152" height="5.152" fill="#06101f"/>
<rect x="1326.212" y="427.727" width="5.152" height="5.152" fill="#06101f"/>
<rect x="1331.364" y="427.727" width="5.152" height="5.152" fill="#06101f"/>
<rect x="1336.515" y="427.727" width="5.152" height="5.152" fill="#06101f"/>
<rect x="1367.424" y="427.727" width="5.152" height="5.152" fill="#06101f"/>
<rect x="1372.576" y="427.727" width="5.152" height="5.152" fill="#06101f"/>
<rect x="1388.030" y="427.727" width="5.152" height="5.152" fill="#06101f"/>
<rect x="1393.182" y="427.727" width="5.152" height="5.152" fill="#06101f"/>
<rect x="1398.333" y="427.727" width="5.152" height="5.152" fill="#06101f"/>
<rect x="1403.485" y="427.727" width="5.152" height="5.152" fill="#06101f"/>
<rect x="1413.788" y="427.727" width="5.152" height="5.152" fill="#06101f"/>
<rect x="1418.939" y="427.727" width="5.152" height="5.152" fill="#06101f"/>
<rect x="1424.091" y="427.727" width="5.152" height="5.152" fill="#06101f"/>
<rect x="1300.455" y="432.879" width="5.152" height="5.152" fill="#06101f"/>
<rect x="1305.606" y="432.879" width="5.152" height="5.152" fill="#06101f"/>
<rect x="1315.909" y="432.879" width="5.152" height="5.152" fill="#06101f"/>
<rect x="1321.061" y="432.879" width="5.152" height="5.152" fill="#06101f"/>
<rect x="1341.667" y="432.879" width="5.152" height="5.152" fill="#06101f"/>
<rect x="1351.970" y="432.879" width="5.152" height="5.152" fill="#06101f"/>
<rect x="1357.121" y="432.879" width="5.152" height="5.152" fill="#06101f"/>
<rect x="1362.273" y="432.879" width="5.152" height="5.152" fill="#06101f"/>
<rect x="1388.030" y="432.879" width="5.152" height="5.152" fill="#06101f"/>
<rect x="1393.182" y="432.879" width="5.152" height="5.152" fill="#06101f"/>
<rect x="1424.091" y="432.879" width="5.152" height="5.152" fill="#06101f"/>
<rect x="1429.242" y="432.879" width="5.152" height="5.152" fill="#06101f"/>
<rect x="1295.303" y="438.030" width="5.152" height="5.152" fill="#06101f"/>
<rect x="1310.758" y="438.030" width="5.152" height="5.152" fill="#06101f"/>
<rect x="1315.909" y="438.030" width="5.152" height="5.152" fill="#06101f"/>
<rect x="1321.061" y="438.030" width="5.152" height="5.152" fill="#06101f"/>
<rect x="1326.212" y="438.030" width="5.152" height="5.152" fill="#06101f"/>
<rect x="1331.364" y="438.030" width="5.152" height="5.152" fill="#06101f"/>
<rect x="1346.818" y="438.030" width="5.152" height="5.152" fill="#06101f"/>
<rect x="1351.970" y="438.030" width="5.152" height="5.152" fill="#06101f"/>
<rect x="1362.273" y="438.030" width="5.152" height="5.152" fill="#06101f"/>
<rect x="1372.576" y="438.030" width="5.152" height="5.152" fill="#06101f"/>
<rect x="1388.030" y="438.030" width="5.152" height="5.152" fill="#06101f"/>
<rect x="1398.333" y="438.030" width="5.152" height="5.152" fill="#06101f"/>
<rect x="1408.636" y="438.030" width="5.152" height="5.152" fill="#06101f"/>
<rect x="1413.788" y="438.030" width="5.152" height="5.152" fill="#06101f"/>
<rect x="1418.939" y="438.030" width="5.152" height="5.152" fill="#06101f"/>
<rect x="1424.091" y="438.030" width="5.152" height="5.152" fill="#06101f"/>
<rect x="1305.606" y="443.182" width="5.152" height="5.152" fill="#06101f"/>
<rect x="1310.758" y="443.182" width="5.152" height="5.152" fill="#06101f"/>
<rect x="1315.909" y="443.182" width="5.152" height="5.152" fill="#06101f"/>
<rect x="1321.061" y="443.182" width="5.152" height="5.152" fill="#06101f"/>
<rect x="1346.818" y="443.182" width="5.152" height="5.152" fill="#06101f"/>
<rect x="1351.970" y="443.182" width="5.152" height="5.152" fill="#06101f"/>
<rect x="1388.030" y="443.182" width="5.152" height="5.152" fill="#06101f"/>
<rect x="1403.485" y="443.182" width="5.152" height="5.152" fill="#06101f"/>
<rect x="1408.636" y="443.182" width="5.152" height="5.152" fill="#06101f"/>
<rect x="1413.788" y="443.182" width="5.152" height="5.152" fill="#06101f"/>
<rect x="1429.242" y="443.182" width="5.152" height="5.152" fill="#06101f"/>
<rect x="1434.394" y="443.182" width="5.152" height="5.152" fill="#06101f"/>
<rect x="1300.455" y="448.333" width="5.152" height="5.152" fill="#06101f"/>
<rect x="1310.758" y="448.333" width="5.152" height="5.152" fill="#06101f"/>
<rect x="1315.909" y="448.333" width="5.152" height="5.152" fill="#06101f"/>
<rect x="1321.061" y="448.333" width="5.152" height="5.152" fill="#06101f"/>
<rect x="1326.212" y="448.333" width="5.152" height="5.152" fill="#06101f"/>
<rect x="1367.424" y="448.333" width="5.152" height="5.152" fill="#06101f"/>
<rect x="1372.576" y="448.333" width="5.152" height="5.152" fill="#06101f"/>
<rect x="1377.727" y="448.333" width="5.152" height="5.152" fill="#06101f"/>
<rect x="1382.879" y="448.333" width="5.152" height="5.152" fill="#06101f"/>
<rect x="1388.030" y="448.333" width="5.152" height="5.152" fill="#06101f"/>
<rect x="1398.333" y="448.333" width="5.152" height="5.152" fill="#06101f"/>
<rect x="1403.485" y="448.333" width="5.152" height="5.152" fill="#06101f"/>
<rect x="1408.636" y="448.333" width="5.152" height="5.152" fill="#06101f"/>
<rect x="1413.788" y="448.333" width="5.152" height="5.152" fill="#06101f"/>
<rect x="1418.939" y="448.333" width="5.152" height="5.152" fill="#06101f"/>
<rect x="1429.242" y="448.333" width="5.152" height="5.152" fill="#06101f"/>
<rect x="1434.394" y="448.333" width="5.152" height="5.152" fill="#06101f"/>
<rect x="1439.545" y="448.333" width="5.152" height="5.152" fill="#06101f"/>
<rect x="1336.515" y="453.485" width="5.152" height="5.152" fill="#06101f"/>
<rect x="1341.667" y="453.485" width="5.152" height="5.152" fill="#06101f"/>
<rect x="1346.818" y="453.485" width="5.152" height="5.152" fill="#06101f"/>
<rect x="1351.970" y="453.485" width="5.152" height="5.152" fill="#06101f"/>
<rect x="1357.121" y="453.485" width="5.152" height="5.152" fill="#06101f"/>
<rect x="1382.879" y="453.485" width="5.152" height="5.152" fill="#06101f"/>
<rect x="1398.333" y="453.485" width="5.152" height="5.152" fill="#06101f"/>
<rect x="1418.939" y="453.485" width="5.152" height="5.152" fill="#06101f"/>
<rect x="1424.091" y="453.485" width="5.152" height="5.152" fill="#06101f"/>
<rect x="1434.394" y="453.485" width="5.152" height="5.152" fill="#06101f"/>
<rect x="1439.545" y="453.485" width="5.152" height="5.152" fill="#06101f"/>
<rect x="1295.303" y="458.636" width="5.152" height="5.152" fill="#06101f"/>
<rect x="1300.455" y="458.636" width="5.152" height="5.152" fill="#06101f"/>
<rect x="1305.606" y="458.636" width="5.152" height="5.152" fill="#06101f"/>
<rect x="1310.758" y="458.636" width="5.152" height="5.152" fill="#06101f"/>
<rect x="1315.909" y="458.636" width="5.152" height="5.152" fill="#06101f"/>
<rect x="1321.061" y="458.636" width="5.152" height="5.152" fill="#06101f"/>
<rect x="1326.212" y="458.636" width="5.152" height="5.152" fill="#06101f"/>
<rect x="1336.515" y="458.636" width="5.152" height="5.152" fill="#06101f"/>
<rect x="1351.970" y="458.636" width="5.152" height="5.152" fill="#06101f"/>
<rect x="1357.121" y="458.636" width="5.152" height="5.152" fill="#06101f"/>
<rect x="1362.273" y="458.636" width="5.152" height="5.152" fill="#06101f"/>
<rect x="1367.424" y="458.636" width="5.152" height="5.152" fill="#06101f"/>
<rect x="1388.030" y="458.636" width="5.152" height="5.152" fill="#06101f"/>
<rect x="1393.182" y="458.636" width="5.152" height="5.152" fill="#06101f"/>
<rect x="1398.333" y="458.636" width="5.152" height="5.152" fill="#06101f"/>
<rect x="1408.636" y="458.636" width="5.152" height="5.152" fill="#06101f"/>
<rect x="1418.939" y="458.636" width="5.152" height="5.152" fill="#06101f"/>
<rect x="1429.242" y="458.636" width="5.152" height="5.152" fill="#06101f"/>
<rect x="1434.394" y="458.636" width="5.152" height="5.152" fill="#06101f"/>
<rect x="1295.303" y="463.788" width="5.152" height="5.152" fill="#06101f"/>
<rect x="1326.212" y="463.788" width="5.152" height="5.152" fill="#06101f"/>
<rect x="1346.818" y="463.788" width="5.152" height="5.152" fill="#06101f"/>
<rect x="1351.970" y="463.788" width="5.152" height="5.152" fill="#06101f"/>
<rect x="1357.121" y="463.788" width="5.152" height="5.152" fill="#06101f"/>
<rect x="1367.424" y="463.788" width="5.152" height="5.152" fill="#06101f"/>
<rect x="1388.030" y="463.788" width="5.152" height="5.152" fill="#06101f"/>
<rect x="1398.333" y="463.788" width="5.152" height="5.152" fill="#06101f"/>
<rect x="1418.939" y="463.788" width="5.152" height="5.152" fill="#06101f"/>
<rect x="1434.394" y="463.788" width="5.152" height="5.152" fill="#06101f"/>
<rect x="1295.303" y="468.939" width="5.152" height="5.152" fill="#06101f"/>
<rect x="1305.606" y="468.939" width="5.152" height="5.152" fill="#06101f"/>
<rect x="1310.758" y="468.939" width="5.152" height="5.152" fill="#06101f"/>
<rect x="1315.909" y="468.939" width="5.152" height="5.152" fill="#06101f"/>
<rect x="1326.212" y="468.939" width="5.152" height="5.152" fill="#06101f"/>
<rect x="1346.818" y="468.939" width="5.152" height="5.152" fill="#06101f"/>
<rect x="1357.121" y="468.939" width="5.152" height="5.152" fill="#06101f"/>
<rect x="1382.879" y="468.939" width="5.152" height="5.152" fill="#06101f"/>
<rect x="1388.030" y="468.939" width="5.152" height="5.152" fill="#06101f"/>
<rect x="1398.333" y="468.939" width="5.152" height="5.152" fill="#06101f"/>
<rect x="1403.485" y="468.939" width="5.152" height="5.152" fill="#06101f"/>
<rect x="1408.636" y="468.939" width="5.152" height="5.152" fill="#06101f"/>
<rect x="1413.788" y="468.939" width="5.152" height="5.152" fill="#06101f"/>
<rect x="1418.939" y="468.939" width="5.152" height="5.152" fill="#06101f"/>
<rect x="1424.091" y="468.939" width="5.152" height="5.152" fill="#06101f"/>
<rect x="1429.242" y="468.939" width="5.152" height="5.152" fill="#06101f"/>
<rect x="1434.394" y="468.939" width="5.152" height="5.152" fill="#06101f"/>
<rect x="1295.303" y="474.091" width="5.152" height="5.152" fill="#06101f"/>
<rect x="1305.606" y="474.091" width="5.152" height="5.152" fill="#06101f"/>
<rect x="1310.758" y="474.091" width="5.152" height="5.152" fill="#06101f"/>
<rect x="1315.909" y="474.091" width="5.152" height="5.152" fill="#06101f"/>
<rect x="1326.212" y="474.091" width="5.152" height="5.152" fill="#06101f"/>
<rect x="1336.515" y="474.091" width="5.152" height="5.152" fill="#06101f"/>
<rect x="1341.667" y="474.091" width="5.152" height="5.152" fill="#06101f"/>
<rect x="1346.818" y="474.091" width="5.152" height="5.152" fill="#06101f"/>
<rect x="1351.970" y="474.091" width="5.152" height="5.152" fill="#06101f"/>
<rect x="1362.273" y="474.091" width="5.152" height="5.152" fill="#06101f"/>
<rect x="1367.424" y="474.091" width="5.152" height="5.152" fill="#06101f"/>
<rect x="1382.879" y="474.091" width="5.152" height="5.152" fill="#06101f"/>
<rect x="1393.182" y="474.091" width="5.152" height="5.152" fill="#06101f"/>
<rect x="1418.939" y="474.091" width="5.152" height="5.152" fill="#06101f"/>
<rect x="1429.242" y="474.091" width="5.152" height="5.152" fill="#06101f"/>
<rect x="1434.394" y="474.091" width="5.152" height="5.152" fill="#06101f"/>
<rect x="1295.303" y="479.242" width="5.152" height="5.152" fill="#06101f"/>
<rect x="1305.606" y="479.242" width="5.152" height="5.152" fill="#06101f"/>
<rect x="1310.758" y="479.242" width="5.152" height="5.152" fill="#06101f"/>
<rect x="1315.909" y="479.242" width="5.152" height="5.152" fill="#06101f"/>
<rect x="1326.212" y="479.242" width="5.152" height="5.152" fill="#06101f"/>
<rect x="1336.515" y="479.242" width="5.152" height="5.152" fill="#06101f"/>
<rect x="1346.818" y="479.242" width="5.152" height="5.152" fill="#06101f"/>
<rect x="1351.970" y="479.242" width="5.152" height="5.152" fill="#06101f"/>
<rect x="1367.424" y="479.242" width="5.152" height="5.152" fill="#06101f"/>
<rect x="1372.576" y="479.242" width="5.152" height="5.152" fill="#06101f"/>
<rect x="1377.727" y="479.242" width="5.152" height="5.152" fill="#06101f"/>
<rect x="1382.879" y="479.242" width="5.152" height="5.152" fill="#06101f"/>
<rect x="1388.030" y="479.242" width="5.152" height="5.152" fill="#06101f"/>
<rect x="1398.333" y="479.242" width="5.152" height="5.152" fill="#06101f"/>
<rect x="1413.788" y="479.242" width="5.152" height="5.152" fill="#06101f"/>
<rect x="1439.545" y="479.242" width="5.152" height="5.152" fill="#06101f"/>
<rect x="1295.303" y="484.394" width="5.152" height="5.152" fill="#06101f"/>
<rect x="1326.212" y="484.394" width="5.152" height="5.152" fill="#06101f"/>
<rect x="1346.818" y="484.394" width="5.152" height="5.152" fill="#06101f"/>
<rect x="1357.121" y="484.394" width="5.152" height="5.152" fill="#06101f"/>
<rect x="1372.576" y="484.394" width="5.152" height="5.152" fill="#06101f"/>
<rect x="1377.727" y="484.394" width="5.152" height="5.152" fill="#06101f"/>
<rect x="1382.879" y="484.394" width="5.152" height="5.152" fill="#06101f"/>
<rect x="1398.333" y="484.394" width="5.152" height="5.152" fill="#06101f"/>
<rect x="1408.636" y="484.394" width="5.152" height="5.152" fill="#06101f"/>
<rect x="1418.939" y="484.394" width="5.152" height="5.152" fill="#06101f"/>
<rect x="1434.394" y="484.394" width="5.152" height="5.152" fill="#06101f"/>
<rect x="1295.303" y="489.545" width="5.152" height="5.152" fill="#06101f"/>
<rect x="1300.455" y="489.545" width="5.152" height="5.152" fill="#06101f"/>
<rect x="1305.606" y="489.545" width="5.152" height="5.152" fill="#06101f"/>
<rect x="1310.758" y="489.545" width="5.152" height="5.152" fill="#06101f"/>
<rect x="1315.909" y="489.545" width="5.152" height="5.152" fill="#06101f"/>
<rect x="1321.061" y="489.545" width="5.152" height="5.152" fill="#06101f"/>
<rect x="1326.212" y="489.545" width="5.152" height="5.152" fill="#06101f"/>
<rect x="1341.667" y="489.545" width="5.152" height="5.152" fill="#06101f"/>
<rect x="1351.970" y="489.545" width="5.152" height="5.152" fill="#06101f"/>
<rect x="1362.273" y="489.545" width="5.152" height="5.152" fill="#06101f"/>
<rect x="1367.424" y="489.545" width="5.152" height="5.152" fill="#06101f"/>
<rect x="1372.576" y="489.545" width="5.152" height="5.152" fill="#06101f"/>
<rect x="1388.030" y="489.545" width="5.152" height="5.152" fill="#06101f"/>
<rect x="1393.182" y="489.545" width="5.152" height="5.152" fill="#06101f"/>
<rect x="1398.333" y="489.545" width="5.152" height="5.152" fill="#06101f"/>
<rect x="1403.485" y="489.545" width="5.152" height="5.152" fill="#06101f"/>
<rect x="1408.636" y="489.545" width="5.152" height="5.152" fill="#06101f"/>
<rect x="1413.788" y="489.545" width="5.152" height="5.152" fill="#06101f"/>
<rect x="1424.091" y="489.545" width="5.152" height="5.152" fill="#06101f"/>
<rect x="1434.394" y="489.545" width="5.152" height="5.152" fill="#06101f"/>
      <text x="545" y="365" text-anchor="middle" class="blue" font-size="16" font-weight="800">SCAN WEBSITE</text>
    </g>
  </g>

  <!-- Email signature -->
  <g filter="url(#shadow)">
    <rect x="75" y="715" width="1450" height="285" rx="34" fill="#03101f" stroke="#00d9ff" stroke-opacity=".45" stroke-width="2"/>
    <text x="105" y="760" class="blue label">EMAIL SIGNATURE</text>

    <g transform="translate(120,795)">
      <rect width="1360" height="165" rx="24" fill="url(#cardBg)" stroke="#00d9ff" stroke-opacity=".70" stroke-width="2"/>
      <g opacity=".22" stroke="#00d9ff" stroke-width="2" fill="none">
        <path d="M20 132 H250 V92 H400"/>
        <path d="M950 45 H1180 V90 H1340"/>
        <path d="M760 140 C890 95, 1020 115, 1170 70"/>
      </g>
      
    <g transform="translate(40,22) scale(0.55)" filter="url(#glow)">
      <path d="M150 0 C92 48 70 110 63 165 C100 112 128 85 150 0 Z" fill="url(#electric)"/>
      <path d="M132 48 C103 80 87 112 78 153 C103 121 124 96 132 48 Z" fill="#020814" opacity=".92"/>
      <path d="M117 82 L98 158" stroke="#00e5ff" stroke-width="5" stroke-linecap="round"/>
      <path d="M151 28 L135 150" stroke="#146dff" stroke-width="5" stroke-linecap="round"/>
      <path d="M0 118 H62 M178 118 H300 M26 95 H88 M198 95 H276" stroke="#00d9ff" stroke-width="4" stroke-linecap="round"/>
      <circle cx="62" cy="118" r="6" fill="#00d9ff"/>
      <circle cx="88" cy="95" r="6" fill="#00d9ff"/>
      <circle cx="178" cy="118" r="6" fill="#00d9ff"/>
      <circle cx="276" cy="95" r="6" fill="#00d9ff"/>
    </g>
      <text x="265" y="62" class="white" font-size="34" font-weight="900">Bryan Jaworski</text>
      <text x="267" y="96" class="blue" font-size="22" font-weight="700">Founder &amp; CEO</text>
      <text x="265" y="132" class="white" font-size="22" font-weight="800">JAWSAI911 | AI Automation &amp; Business Solutions</text>
      <line x1="720" y1="30" x2="720" y2="138" stroke="#00d9ff" stroke-width="2" opacity=".65"/>
      <text x="765" y="55" class="white" font-size="20">☎ 786-761-2950</text>
      <text x="765" y="88" class="white" font-size="20">✉ sharknotgoldfish@gmail.com</text>
      <text x="765" y="121" class="white" font-size="20">🌐 JAWSAI911.com</text>
      <text x="1125" y="72" class="blue" font-size="21" font-weight="900" letter-spacing="3">LEAVE THE</text>
      <text x="1125" y="104" class="blue" font-size="21" font-weight="900" letter-spacing="3">SCHOOL BEHIND</text>
    </g>
  </g>
</svg>
